<?xml version="1.0" standalone="no"?>
<!DOCTYPE svg PUBLIC "-//W3C//DTD SVG 20010904//EN"
 "http://www.w3.org/TR/2001/REC-SVG-20010904/DTD/svg10.dtd">
<svg version="1.0" xmlns="http://www.w3.org/2000/svg"
 width="500.000000pt" height="500.000000pt" viewBox="0 0 500.000000 500.000000"
 preserveAspectRatio="xMidYMid meet">

<g transform="translate(0.000000,500.000000) scale(0.100000,-0.100000)"
fill="#000000" stroke="none">
<path d="M1100 2500 l0 -1220 1145 0 1145 0 0 35 0 35 -1110 0 -1110 0 0 1150
0 1150 1330 0 1330 0 2 -562 3 -563 33 -3 32 -3 0 600 0 601 -1400 0 -1400 0
0 -1220z"/>
<path d="M2960 2195 l0 -175 126 0 125 0 -3 33 -3 32 -70 2 c-38 1 -76 2 -82
2 -10 1 -13 36 -13 141 l0 140 -40 0 -40 0 0 -175z"/>
<path d="M3426 2338 c-7 -18 -41 -95 -75 -171 -33 -76 -61 -140 -61 -142 0 -3
18 -5 39 -5 36 0 41 3 52 35 l13 35 83 0 83 0 14 -35 c14 -32 19 -35 56 -35
23 0 40 4 38 9 -1 4 -36 83 -77 175 l-74 166 -38 0 c-34 0 -40 -4 -53 -32z
m73 -100 c38 -90 39 -88 -18 -88 -28 0 -51 4 -51 9 0 13 42 121 47 121 2 0 12
-19 22 -42z"/>
<path d="M3787 2364 c-4 -4 -7 -83 -7 -176 l0 -168 40 0 40 0 -2 173 -3 172
-30 3 c-17 2 -34 0 -38 -4z"/>
<path d="M2172 1798 l-2 -68 43 2 42 1 -37 4 -37 4 -4 62 -3 62 -2 -67z"/>
<path d="M2313 1795 c0 -38 2 -53 4 -32 2 20 2 52 0 70 -2 17 -4 1 -4 -38z"/>
<path d="M2390 1794 c0 -36 4 -63 9 -60 5 3 8 22 6 41 -1 20 2 38 6 41 4 2 23
-16 41 -40 18 -25 36 -45 41 -46 4 0 6 30 5 68 l-1 67 -6 -55 -6 -55 -40 53
c-21 28 -43 52 -47 52 -4 0 -8 -30 -8 -66z"/>
<path d="M2582 1840 c-27 -26 -28 -64 -2 -90 36 -36 100 -21 100 22 0 26 -18
22 -22 -4 -7 -50 -80 -25 -80 27 0 36 28 58 65 51 17 -4 26 -2 22 4 -11 17
-60 11 -83 -10z"/>
<path d="M2749 1856 c-9 -9 2 -99 13 -113 16 -20 66 -16 78 6 5 11 9 41 8 68
l-1 48 -6 -54 c-11 -98 -72 -99 -81 -2 -3 29 -8 50 -11 47z"/>
<path d="M2936 1800 c-28 -67 -32 -84 -13 -58 20 26 75 30 90 7 6 -10 15 -19
19 -19 10 0 -48 124 -59 127 -6 2 -22 -24 -37 -57z m64 -12 c0 -5 -11 -8 -25
-8 -27 0 -31 10 -14 42 11 21 12 21 25 -3 7 -13 13 -27 14 -31z"/>
<path d="M3170 1795 l0 -65 48 2 47 1 -42 4 c-38 4 -43 7 -43 28 0 20 6 24 38
28 l37 4 -37 1 c-33 2 -38 5 -38 26 0 22 5 25 43 29 l42 4 -47 1 -48 2 0 -65z"/>
<path d="M3413 1803 c-13 -32 -27 -61 -30 -65 -2 -5 0 -8 6 -8 5 0 12 8 15 18
8 25 70 23 91 -3 19 -24 18 -17 -14 58 -14 31 -29 57 -33 57 -5 0 -21 -26 -35
-57z m52 0 c5 -20 3 -23 -19 -23 -30 0 -30 0 -14 35 12 27 22 24 33 -12z"/>
<path d="M3571 1793 c1 -38 4 -58 6 -45 6 29 48 30 65 2 7 -11 16 -20 21 -20
4 0 1 11 -8 24 -14 21 -14 25 0 36 34 28 3 70 -51 70 l-34 0 1 -67z m77 28 c4
-26 -12 -41 -45 -41 -20 0 -23 5 -23 36 0 34 1 35 33 32 25 -2 33 -8 35 -27z"/>
<path d="M3732 1853 c26 -4 27 -8 31 -66 l3 -62 2 62 c2 59 3 62 30 66 15 2 0
4 -33 4 -33 0 -48 -2 -33 -4z"/>
<path d="M3873 1795 c0 -38 2 -53 4 -32 2 20 2 52 0 70 -2 17 -4 1 -4 -38z"/>
<path d="M3102 1590 c0 -14 2 -19 5 -12 2 6 2 18 0 25 -3 6 -5 1 -5 -13z"/>
<path d="M2920 1535 l0 -65 38 0 c53 0 82 23 82 65 0 42 -29 65 -82 65 l-38 0
0 -65z m88 39 c44 -30 14 -94 -45 -94 -23 0 -25 3 -25 40 0 64 2 70 25 70 12
0 33 -7 45 -16z"/>
<path d="M3183 1535 c0 -38 2 -53 4 -32 2 20 2 52 0 70 -2 17 -4 1 -4 -38z"/>
<path d="M3262 1593 c26 -4 27 -8 31 -66 l3 -62 2 62 c2 59 3 62 30 66 15 2 0
4 -33 4 -33 0 -48 -2 -33 -4z"/>
<path d="M3413 1543 c-13 -32 -27 -61 -30 -65 -2 -5 0 -8 6 -8 5 0 12 8 15 18
8 25 70 23 91 -3 19 -24 18 -17 -14 58 -14 31 -29 57 -33 57 -5 0 -21 -26 -35
-57z m57 -10 c0 -7 -11 -13 -25 -13 -29 0 -29 0 -13 35 11 25 13 26 25 9 7
-10 13 -24 13 -31z"/>
<path d="M3560 1535 l0 -65 48 2 c43 1 44 2 10 5 l-38 4 -1 52 c-1 29 -1 55 0
60 0 4 -3 7 -9 7 -6 0 -10 -28 -10 -65z"/>
<path d="M3700 1535 c0 -37 4 -65 10 -65 6 0 10 27 9 65 -1 36 -5 65 -10 65
-5 0 -9 -29 -9 -65z"/>
<path d="M3803 1543 c-13 -32 -27 -61 -30 -65 -2 -5 0 -8 6 -8 5 0 12 8 15 18
8 26 70 23 91 -3 19 -24 18 -17 -14 58 -14 31 -29 57 -33 57 -5 0 -21 -26 -35
-57z m52 0 c5 -20 3 -23 -19 -23 -30 0 -30 0 -14 35 12 27 22 24 33 -12z"/>
<path d="M3515 1359 c-4 -6 -4 -13 -1 -16 3 -4 6 0 6 8 0 11 2 11 10 -1 15
-23 12 -33 -9 -27 -19 5 -38 -19 -26 -31 3 -3 5 0 5 6 0 16 43 15 59 0 7 -7 4
6 -8 30 -23 45 -26 48 -36 31z"/>
<path d="M3604 1359 c-3 -6 -1 -16 5 -22 9 -9 11 -8 6 5 -5 12 0 18 17 21 22
4 22 4 1 6 -12 0 -25 -4 -29 -10z"/>
<path d="M3700 1331 c0 -40 1 -41 33 -40 30 2 30 2 5 6 -23 4 -28 9 -28 34 0
23 4 29 21 29 15 0 19 -5 14 -19 -3 -11 0 -21 9 -24 11 -4 12 0 7 21 -5 20
-15 28 -34 30 -25 3 -27 1 -27 -37z"/>
<path d="M3812 1328 c-2 -35 0 -38 26 -37 22 1 23 2 5 6 -16 3 -23 13 -26 36
-4 31 -4 31 -5 -5z"/>
<path d="M3640 1323 c17 -8 11 -21 -12 -26 -20 -5 -20 -5 2 -4 26 2 35 28 12
33 -7 1 -8 0 -2 -3z"/>
</g>
</svg>
